# Blender v2.81 (sub 16) OBJ File: ''
# www.blender.org
mtllib stone.mtl
o stone
v -0.353196 -0.143938 0.435132
v -0.214232 -0.169291 0.511693
v -0.230826 -0.092251 0.645050
v -0.412122 -0.085382 0.509152
v -0.012053 -0.181804 0.547084
v -0.012762 -0.099121 0.689178
v -0.012762 -0.000000 0.736064
v -0.247065 -0.000000 0.689178
v -0.441130 -0.000000 0.544428
v 0.191303 -0.169291 0.507848
v 0.206609 -0.092251 0.641132
v 0.333364 -0.143938 0.428265
v 0.392455 -0.085382 0.499888
v 0.422141 -0.000000 0.534034
v 0.223038 -0.000000 0.684687
v 0.206609 0.092251 0.641132
v -0.012762 0.099121 0.689178
v 0.392455 0.085382 0.499888
v 0.333364 0.143938 0.428265
v 0.191303 0.169291 0.507848
v -0.012053 0.181804 0.547084
v -0.230826 0.092251 0.645050
v -0.412122 0.085382 0.509152
v -0.214232 0.169291 0.511693
v -0.353196 0.143938 0.435132
v -0.232443 0.215907 0.277151
v -0.415909 0.169291 0.252587
v -0.009224 0.231610 0.298765
v -0.005481 0.248293 -0.035572
v -0.252638 0.231610 -0.034582
v -0.452706 0.181804 -0.029249
v 0.214691 0.215907 0.276407
v 0.401072 0.169291 0.249952
v 0.444171 0.181804 -0.018720
v 0.242033 0.231610 -0.026750
v 0.232377 0.215907 -0.338026
v -0.003551 0.231610 -0.376519
v 0.423831 0.169291 -0.296318
v 0.364271 0.143938 -0.486065
v 0.216810 0.169291 -0.579704
v -0.003313 0.181804 -0.633318
v -0.239208 0.215907 -0.354228
v -0.429857 0.169291 -0.319916
v -0.223496 0.169291 -0.597678
v -0.370773 0.143938 -0.512176
v -0.240250 0.092251 -0.730093
v -0.433618 0.085382 -0.581613
v -0.002892 0.099121 -0.772956
v -0.002691 0.000000 -0.815807
v -0.257298 0.000000 -0.770631
v -0.464295 0.000000 -0.613068
v 0.234165 0.092251 -0.711267
v 0.427330 0.085382 -0.552779
v 0.458136 0.000000 -0.583286
v 0.251547 0.000000 -0.750985
v 0.234165 -0.092251 -0.711267
v -0.002892 -0.099121 -0.772956
v 0.427330 -0.085382 -0.552779
v 0.364271 -0.143938 -0.486065
v 0.216810 -0.169291 -0.579704
v -0.003313 -0.181804 -0.633318
v -0.240250 -0.092251 -0.730093
v -0.433618 -0.085382 -0.581613
v -0.223496 -0.169291 -0.597678
v -0.370773 -0.143938 -0.512176
v -0.239208 -0.215907 -0.354228
v -0.429857 -0.169291 -0.319916
v -0.003551 -0.231610 -0.376519
v -0.005481 -0.248293 -0.035572
v -0.252638 -0.231610 -0.034582
v -0.452706 -0.181804 -0.029249
v 0.232377 -0.215907 -0.338026
v 0.423831 -0.169291 -0.296318
v 0.444171 -0.181804 -0.018720
v 0.242033 -0.231610 -0.026750
v 0.214691 -0.215907 0.276407
v -0.009224 -0.231610 0.298765
v 0.401072 -0.169291 0.249952
v -0.232443 -0.215907 0.277151
v -0.415909 -0.169291 0.252587
v 0.511611 -0.092251 0.266582
v 0.562646 -0.099121 -0.015716
v 0.601439 0.000000 -0.014495
v 0.548151 -0.000000 0.285609
v 0.536726 -0.092251 -0.305273
v 0.573859 0.000000 -0.320776
v 0.536726 0.092251 -0.305273
v 0.562646 0.099121 -0.015716
v 0.511611 0.092251 0.266582
v -0.542114 -0.092251 -0.331245
v -0.569563 -0.099121 -0.025603
v -0.607543 0.000000 -0.023635
v -0.579016 0.000000 -0.346919
v -0.524462 -0.092251 0.271629
v -0.560069 -0.000000 0.291968
v -0.524462 0.092251 0.271629
v -0.569563 0.099121 -0.025603
v -0.542114 0.092251 -0.331245
vt 0.375000 0.000000
vt 0.437500 0.000000
vt 0.437500 0.062500
vt 0.375000 0.062500
vt 0.500000 0.000000
vt 0.500000 0.062500
vt 0.500000 0.125000
vt 0.437500 0.125000
vt 0.375000 0.125000
vt 0.562500 0.000000
vt 0.562500 0.062500
vt 0.625000 0.000000
vt 0.625000 0.062500
vt 0.625000 0.125000
vt 0.562500 0.125000
vt 0.562500 0.187500
vt 0.500000 0.187500
vt 0.625000 0.187500
vt 0.625000 0.250000
vt 0.562500 0.250000
vt 0.500000 0.250000
vt 0.437500 0.187500
vt 0.375000 0.187500
vt 0.437500 0.250000
vt 0.375000 0.250000
vt 0.437500 0.312500
vt 0.375000 0.312500
vt 0.500000 0.312500
vt 0.500000 0.375000
vt 0.437500 0.375000
vt 0.375000 0.375000
vt 0.562500 0.312500
vt 0.625000 0.312500
vt 0.625000 0.375000
vt 0.562500 0.375000
vt 0.562500 0.437500
vt 0.500000 0.437500
vt 0.625000 0.437500
vt 0.625000 0.500000
vt 0.562500 0.500000
vt 0.500000 0.500000
vt 0.437500 0.437500
vt 0.375000 0.437500
vt 0.437500 0.500000
vt 0.375000 0.500000
vt 0.437500 0.562500
vt 0.375000 0.562500
vt 0.500000 0.562500
vt 0.500000 0.625000
vt 0.437500 0.625000
vt 0.375000 0.625000
vt 0.562500 0.562500
vt 0.625000 0.562500
vt 0.625000 0.625000
vt 0.562500 0.625000
vt 0.562500 0.687500
vt 0.500000 0.687500
vt 0.625000 0.687500
vt 0.625000 0.750000
vt 0.562500 0.750000
vt 0.500000 0.750000
vt 0.437500 0.687500
vt 0.375000 0.687500
vt 0.437500 0.750000
vt 0.375000 0.750000
vt 0.437500 0.812500
vt 0.375000 0.812500
vt 0.500000 0.812500
vt 0.500000 0.875000
vt 0.437500 0.875000
vt 0.375000 0.875000
vt 0.562500 0.812500
vt 0.625000 0.812500
vt 0.625000 0.875000
vt 0.562500 0.875000
vt 0.562500 0.937500
vt 0.500000 0.937500
vt 0.625000 0.937500
vt 0.625000 1.000000
vt 0.562500 1.000000
vt 0.500000 1.000000
vt 0.437500 0.937500
vt 0.375000 0.937500
vt 0.437500 1.000000
vt 0.375000 1.000000
vt 0.687500 0.000000
vt 0.687500 0.062500
vt 0.750000 0.000000
vt 0.750000 0.062500
vt 0.750000 0.125000
vt 0.687500 0.125000
vt 0.812500 0.000000
vt 0.812500 0.062500
vt 0.875000 0.000000
vt 0.875000 0.062500
vt 0.875000 0.125000
vt 0.812500 0.125000
vt 0.812500 0.187500
vt 0.750000 0.187500
vt 0.875000 0.187500
vt 0.875000 0.250000
vt 0.812500 0.250000
vt 0.750000 0.250000
vt 0.687500 0.187500
vt 0.687500 0.250000
vt 0.125000 0.000000
vt 0.187500 0.000000
vt 0.187500 0.062500
vt 0.125000 0.062500
vt 0.250000 0.000000
vt 0.250000 0.062500
vt 0.250000 0.125000
vt 0.187500 0.125000
vt 0.125000 0.125000
vt 0.312500 0.000000
vt 0.312500 0.062500
vt 0.312500 0.125000
vt 0.312500 0.187500
vt 0.250000 0.187500
vt 0.312500 0.250000
vt 0.250000 0.250000
vt 0.187500 0.187500
vt 0.125000 0.187500
vt 0.187500 0.250000
vt 0.125000 0.250000
vn -0.3596 -0.8355 0.4154
vn -0.1326 -0.8610 0.4909
vn -0.1840 -0.4348 0.8815
vn -0.5387 -0.4544 0.7094
vn 0.1408 -0.8596 0.4911
vn 0.3637 -0.8322 0.4186
vn 0.5444 -0.4508 0.7074
vn 0.1986 -0.4327 0.8794
vn 0.1986 0.4327 0.8794
vn 0.5444 0.4508 0.7074
vn 0.3637 0.8322 0.4186
vn 0.1408 0.8596 0.4911
vn -0.5387 0.4544 0.7094
vn -0.1840 0.4348 0.8815
vn -0.1326 0.8610 0.4909
vn -0.3596 0.8355 0.4154
vn -0.2766 0.9366 0.2153
vn -0.0912 0.9760 0.1978
vn -0.0709 0.9961 0.0517
vn -0.2465 0.9666 0.0696
vn 0.0934 0.9751 0.2011
vn 0.2775 0.9338 0.2257
vn 0.2436 0.9668 0.0777
vn 0.0700 0.9961 0.0540
vn 0.0717 0.9962 -0.0503
vn 0.2445 0.9679 -0.0588
vn 0.2811 0.9375 -0.2053
vn 0.0992 0.9764 -0.1919
vn -0.2448 0.9677 -0.0593
vn -0.0693 0.9963 -0.0505
vn -0.0848 0.9779 -0.1912
vn -0.2720 0.9408 -0.2021
vn -0.3645 0.8331 -0.4159
vn -0.1217 0.8591 -0.4971
vn -0.1665 0.4062 -0.8985
vn -0.5512 0.4363 -0.7112
vn 0.1606 0.8550 -0.4931
vn 0.3824 0.8276 -0.4109
vn 0.5749 0.4309 -0.6955
vn 0.2335 0.4032 -0.8848
vn 0.2335 -0.4032 -0.8848
vn 0.5749 -0.4309 -0.6955
vn 0.3824 -0.8276 -0.4109
vn 0.1606 -0.8550 -0.4931
vn -0.5512 -0.4363 -0.7112
vn -0.1665 -0.4062 -0.8985
vn -0.1217 -0.8591 -0.4971
vn -0.3645 -0.8331 -0.4159
vn -0.2720 -0.9408 -0.2021
vn -0.0848 -0.9779 -0.1912
vn -0.0693 -0.9963 -0.0505
vn -0.2448 -0.9677 -0.0593
vn 0.0992 -0.9764 -0.1919
vn 0.2811 -0.9375 -0.2053
vn 0.2445 -0.9679 -0.0588
vn 0.0717 -0.9962 -0.0503
vn 0.0700 -0.9961 0.0540
vn 0.2436 -0.9668 0.0777
vn 0.2775 -0.9338 0.2257
vn 0.0934 -0.9751 0.2011
vn -0.2465 -0.9666 0.0696
vn -0.0709 -0.9961 0.0517
vn -0.0912 -0.9760 0.1978
vn -0.2766 -0.9366 0.2153
vn 0.5004 -0.8154 0.2910
vn 0.5604 -0.8188 0.1245
vn 0.9112 -0.3764 0.1677
vn 0.8045 -0.4243 0.4155
vn 0.5653 -0.8216 -0.0742
vn 0.5169 -0.8157 -0.2598
vn 0.8306 -0.4141 -0.3722
vn 0.9237 -0.3730 -0.0872
vn 0.9237 0.3730 -0.0872
vn 0.8306 0.4141 -0.3722
vn 0.5169 0.8157 -0.2598
vn 0.5653 0.8216 -0.0742
vn 0.8045 0.4243 0.4155
vn 0.9112 0.3764 0.1677
vn 0.5604 0.8188 0.1245
vn 0.5004 0.8154 0.2910
vn -0.5158 -0.8179 -0.2548
vn -0.5686 -0.8192 -0.0746
vn -0.9256 -0.3684 -0.0864
vn -0.8335 -0.4141 -0.3657
vn -0.5676 -0.8163 0.1076
vn -0.5084 -0.8162 0.2745
vn -0.8182 -0.4204 0.3921
vn -0.9181 -0.3697 0.1428
vn -0.9181 0.3697 0.1428
vn -0.8182 0.4204 0.3921
vn -0.5084 0.8162 0.2745
vn -0.5676 0.8163 0.1076
vn -0.8335 0.4141 -0.3657
vn -0.9256 0.3684 -0.0864
vn -0.5686 0.8192 -0.0746
vn -0.5158 0.8179 -0.2548
usemtl lambert2SG
s off
f 1/1/1 2/2/1 3/3/1 4/4/1
f 2/2/2 5/5/2 6/6/2 3/3/2
f 3/3/3 6/6/3 7/7/3 8/8/3
f 4/4/4 3/3/4 8/8/4 9/9/4
f 5/5/5 10/10/5 11/11/5 6/6/5
f 10/10/6 12/12/6 13/13/6 11/11/6
f 11/11/7 13/13/7 14/14/7 15/15/7
f 6/6/8 11/11/8 15/15/8 7/7/8
f 7/7/9 15/15/9 16/16/9 17/17/9
f 15/15/10 14/14/10 18/18/10 16/16/10
f 16/16/11 18/18/11 19/19/11 20/20/11
f 17/17/12 16/16/12 20/20/12 21/21/12
f 9/9/13 8/8/13 22/22/13 23/23/13
f 8/8/14 7/7/14 17/17/14 22/22/14
f 22/22/15 17/17/15 21/21/15 24/24/15
f 23/23/16 22/22/16 24/24/16 25/25/16
f 25/25/17 24/24/17 26/26/17 27/27/17
f 24/24/18 21/21/18 28/28/18 26/26/18
f 26/26/19 28/28/19 29/29/19 30/30/19
f 27/27/20 26/26/20 30/30/20 31/31/20
f 21/21/21 20/20/21 32/32/21 28/28/21
f 20/20/22 19/19/22 33/33/22 32/32/22
f 32/32/23 33/33/23 34/34/23 35/35/23
f 28/28/24 32/32/24 35/35/24 29/29/24
f 29/29/25 35/35/25 36/36/25 37/37/25
f 35/35/26 34/34/26 38/38/26 36/36/26
f 36/36/27 38/38/27 39/39/27 40/40/27
f 37/37/28 36/36/28 40/40/28 41/41/28
f 31/31/29 30/30/29 42/42/29 43/43/29
f 30/30/30 29/29/30 37/37/30 42/42/30
f 42/42/31 37/37/31 41/41/31 44/44/31
f 43/43/32 42/42/32 44/44/32 45/45/32
f 45/45/33 44/44/33 46/46/33 47/47/33
f 44/44/34 41/41/34 48/48/34 46/46/34
f 46/46/35 48/48/35 49/49/35 50/50/35
f 47/47/36 46/46/36 50/50/36 51/51/36
f 41/41/37 40/40/37 52/52/37 48/48/37
f 40/40/38 39/39/38 53/53/38 52/52/38
f 52/52/39 53/53/39 54/54/39 55/55/39
f 48/48/40 52/52/40 55/55/40 49/49/40
f 49/49/41 55/55/41 56/56/41 57/57/41
f 55/55/42 54/54/42 58/58/42 56/56/42
f 56/56/43 58/58/43 59/59/43 60/60/43
f 57/57/44 56/56/44 60/60/44 61/61/44
f 51/51/45 50/50/45 62/62/45 63/63/45
f 50/50/46 49/49/46 57/57/46 62/62/46
f 62/62/47 57/57/47 61/61/47 64/64/47
f 63/63/48 62/62/48 64/64/48 65/65/48
f 65/65/49 64/64/49 66/66/49 67/67/49
f 64/64/50 61/61/50 68/68/50 66/66/50
f 66/66/51 68/68/51 69/69/51 70/70/51
f 67/67/52 66/66/52 70/70/52 71/71/52
f 61/61/53 60/60/53 72/72/53 68/68/53
f 60/60/54 59/59/54 73/73/54 72/72/54
f 72/72/55 73/73/55 74/74/55 75/75/55
f 68/68/56 72/72/56 75/75/56 69/69/56
f 69/69/57 75/75/57 76/76/57 77/77/57
f 75/75/58 74/74/58 78/78/58 76/76/58
f 76/76/59 78/78/59 12/79/59 10/80/59
f 77/77/60 76/76/60 10/80/60 5/81/60
f 71/71/61 70/70/61 79/82/61 80/83/61
f 70/70/62 69/69/62 77/77/62 79/82/62
f 79/82/63 77/77/63 5/81/63 2/84/63
f 80/83/64 79/82/64 2/84/64 1/85/64
f 12/12/65 78/86/65 81/87/65 13/13/65
f 78/86/66 74/88/66 82/89/66 81/87/66
f 81/87/67 82/89/67 83/90/67 84/91/67
f 13/13/68 81/87/68 84/91/68 14/14/68
f 74/88/69 73/92/69 85/93/69 82/89/69
f 73/92/70 59/94/70 58/95/70 85/93/70
f 85/93/71 58/95/71 54/96/71 86/97/71
f 82/89/72 85/93/72 86/97/72 83/90/72
f 83/90/73 86/97/73 87/98/73 88/99/73
f 86/97/74 54/96/74 53/100/74 87/98/74
f 87/98/75 53/100/75 39/101/75 38/102/75
f 88/99/76 87/98/76 38/102/76 34/103/76
f 14/14/77 84/91/77 89/104/77 18/18/77
f 84/91/78 83/90/78 88/99/78 89/104/78
f 89/104/79 88/99/79 34/103/79 33/105/79
f 18/18/80 89/104/80 33/105/80 19/19/80
f 65/106/81 67/107/81 90/108/81 63/109/81
f 67/107/82 71/110/82 91/111/82 90/108/82
f 90/108/83 91/111/83 92/112/83 93/113/83
f 63/109/84 90/108/84 93/113/84 51/114/84
f 71/110/85 80/115/85 94/116/85 91/111/85
f 80/115/86 1/1/86 4/4/86 94/116/86
f 94/116/87 4/4/87 9/9/87 95/117/87
f 91/111/88 94/116/88 95/117/88 92/112/88
f 92/112/89 95/117/89 96/118/89 97/119/89
f 95/117/90 9/9/90 23/23/90 96/118/90
f 96/118/91 23/23/91 25/25/91 27/120/91
f 97/119/92 96/118/92 27/120/92 31/121/92
f 51/114/93 93/113/93 98/122/93 47/123/93
f 93/113/94 92/112/94 97/119/94 98/122/94
f 98/122/95 97/119/95 31/121/95 43/124/95
f 47/123/96 98/122/96 43/124/96 45/125/96
